<svg width="512" height="512" viewBox="0 0 512 512" fill="none" xmlns="http://www.w3.org/2000/svg">
  <rect width="512" height="512" rx="115" fill="#0F172A"/>
  
  <g opacity="0.1" stroke="#FFFFFF" stroke-width="4" stroke-linecap="round">
    <path d="M170 64V448"/>
    <path d="M342 64V448"/>
    <path d="M64 170H448"/>
    <path d="M64 342H448"/>
  </g>

  <path d="M128 128 H256 C326 128 384 186 384 256 V256" 
        stroke="#22D3EE" stroke-width="64" stroke-linecap="round" stroke-linejoin="round"/>
  
  <path d="M384 384 H256 C186 384 128 326 128 256 V256" 
        stroke="#3B82F6" stroke-width="64" stroke-linecap="round" stroke-linejoin="round"/>

  <circle cx="128" cy="128" r="48" fill="#22D3EE"/>
  <circle cx="384" cy="256" r="48" fill="#22D3EE"/>
  <circle cx="128" cy="128" r="20" fill="#A5F3FC"/>
  <circle cx="384" cy="256" r="20" fill="#A5F3FC"/>

  <circle cx="384" cy="384" r="48" fill="#3B82F6"/>
  <circle cx="128" cy="256" r="48" fill="#3B82F6"/>
  <circle cx="384" cy="384" r="20" fill="#60A5FA"/>
  <circle cx="128" cy="256" r="20" fill="#60A5FA"/>
</svg>